<svg xmlns="http://www.w3.org/2000/svg" viewBox="0 0 311.76 60.3"><defs><style>.cls-1{fill:#fff;}</style></defs><g id="Layer_2" data-name="Layer 2"><g id="Layer_1-2" data-name="Layer 1"><path class="cls-1" d="M3.18,42.84Q0,39.42,0,31.5A48.32,48.32,0,0,1,2.13,17.94,31.36,31.36,0,0,1,9,5.49,15.46,15.46,0,0,1,20.94.3a12.19,12.19,0,0,1,7.26,2A7,7,0,0,1,31,8.34a7,7,0,0,1-1,4.05,3.6,3.6,0,0,1-3.18,1.47,4.16,4.16,0,0,1-3.42-1.56,4.71,4.71,0,0,0,1.92-2.16,7.21,7.21,0,0,0,.84-3.36,3.93,3.93,0,0,0-.87-2.64,3.48,3.48,0,0,0-2.79-1q-3.18,0-6.06,4.35a37.28,37.28,0,0,0-4.65,11A49.06,49.06,0,0,0,10,31.14q0,4.56,1.56,7t5.64,2.4a14,14,0,0,0,6.54-1.56,15.15,15.15,0,0,0,5.16-4.44l1.38.6a15.84,15.84,0,0,1-4.44,6.3,19.89,19.89,0,0,1-12.66,4.86Q6.36,46.26,3.18,42.84Z"/><path class="cls-1" d="M29.82,43.26q-2.58-2.28-2.58-7.2A28.6,28.6,0,0,1,28.92,27a21.42,21.42,0,0,1,5.4-8.61,12.86,12.86,0,0,1,9.36-3.63q7.68,0,7.68,9.6v.06a2.41,2.41,0,0,0,.66.06,12.34,12.34,0,0,0,4.56-1.05,22.8,22.8,0,0,0,4.68-2.55l.54,1.62a14.36,14.36,0,0,1-4.53,3.15,23.47,23.47,0,0,1-6.09,1.83A27.17,27.17,0,0,1,48.72,37a16.2,16.2,0,0,1-5.1,6.3,11.46,11.46,0,0,1-6.78,2.22A10.23,10.23,0,0,1,29.82,43.26Zm12.3-4.77A14.78,14.78,0,0,0,44.64,34a29,29,0,0,0,1.56-6.33q-1.62-.36-1.62-2.52a3.14,3.14,0,0,1,1.86-3.24,6.17,6.17,0,0,0-.6-2.73,1.84,1.84,0,0,0-1.68-.75q-2,0-3.84,2.88a25.46,25.46,0,0,0-3,6.9,26.39,26.39,0,0,0-1.14,7.08,7.7,7.7,0,0,0,.66,3.87,2.67,2.67,0,0,0,2.4,1A4,4,0,0,0,42.12,38.49Z"/><path class="cls-1" d="M55.32,43.32Q53,41,53,36a27.41,27.41,0,0,1,1.77-9.33,21.49,21.49,0,0,1,5.28-8.28A11.63,11.63,0,0,1,68.46,15a6.43,6.43,0,0,1,3.66.84,2.59,2.59,0,0,1,1.2,2.22v.24L76.26,4.5l8.88-1.2-6.9,32.4A7.43,7.43,0,0,0,78,37.62a2.2,2.2,0,0,0,.57,1.71,2.81,2.81,0,0,0,1.89.51,3.72,3.72,0,0,0,2.91-1.44,10.48,10.48,0,0,0,1.95-3.84h2.52Q84.18,45.3,75.78,45.3a5.89,5.89,0,0,1-4-1.32,6,6,0,0,1-1.89-3.84,14.49,14.49,0,0,1-3.75,4A8.61,8.61,0,0,1,61,45.66,7.63,7.63,0,0,1,55.32,43.32Zm12.51-4.8a6.82,6.82,0,0,0,2-3.66v-.3l2.94-13.74a2.41,2.41,0,0,0-2.46-2.1q-2.4,0-4.32,2.79a22.09,22.09,0,0,0-3,6.72,26.58,26.58,0,0,0-1.08,6.93q0,3,.87,3.84a3,3,0,0,0,2.13.84A4.41,4.41,0,0,0,67.83,38.52Z"/><path class="cls-1" d="M86.34,43.35Q83.88,41,83.88,36.12A29.7,29.7,0,0,1,85.5,27a21.17,21.17,0,0,1,5.28-8.61,12.66,12.66,0,0,1,9.3-3.63q6.6,0,6.6,5.76a10.75,10.75,0,0,1-1.92,6.18,14.16,14.16,0,0,1-5.1,4.53,16.47,16.47,0,0,1-6.78,1.95q-.12,1.32-.12,1.8,0,5,3.72,5a8.52,8.52,0,0,0,3.6-.9,14.53,14.53,0,0,0,3.48-2.28q-1.62,8.88-10.38,8.88A9.6,9.6,0,0,1,86.34,43.35ZM97.59,28.8a10.9,10.9,0,0,0,3.24-3.69,9.69,9.69,0,0,0,1.23-4.71q0-2.46-1.5-2.46-2.1,0-4.17,3.81A31.84,31.84,0,0,0,93.3,30.3,7.59,7.59,0,0,0,97.59,28.8Z"/><path class="cls-1" d="M126.54,45.06a10.29,10.29,0,0,1-4.44-3.69,9.76,9.76,0,0,1-1.56-5.49,10.35,10.35,0,0,1,1.11-4.8,8.92,8.92,0,0,1,3-3.42,7.36,7.36,0,0,1,4.17-1.26,5.85,5.85,0,0,1,3.54,1.05,4.52,4.52,0,0,1,1.8,2.91,7.23,7.23,0,0,0-5,1.65,5.67,5.67,0,0,0-1.86,4.47,5.36,5.36,0,0,0,5.7,5.7,7,7,0,0,0,5.25-2.13,7.39,7.39,0,0,0,2.07-5.37,10,10,0,0,0-1.56-5.34,50.27,50.27,0,0,0-4.68-6.12,51.26,51.26,0,0,1-4.89-6.39A10.92,10.92,0,0,1,127.56,11a9.56,9.56,0,0,1,1.74-5.61,11.87,11.87,0,0,1,4.8-3.93A16,16,0,0,1,141,0a12.26,12.26,0,0,1,7.77,2.28,7.37,7.37,0,0,1,2.91,6.12,6.29,6.29,0,0,1-1.26,4.08,4,4,0,0,1-3.3,1.56,4.34,4.34,0,0,1-3.66-1.86,5.82,5.82,0,0,0,1.8-2.22,6.6,6.6,0,0,0,.66-2.88A4.14,4.14,0,0,0,144.78,4a4.22,4.22,0,0,0-3.12-1.14,5,5,0,0,0-3.93,1.71,6.28,6.28,0,0,0-1.53,4.35,7.9,7.9,0,0,0,1.38,4.47,48.78,48.78,0,0,0,4.32,5.31q2.4,2.58,3.87,4.44a19.08,19.08,0,0,1,2.52,4.29,13.09,13.09,0,0,1,1.05,5.25,12.07,12.07,0,0,1-2.13,7,14.66,14.66,0,0,1-5.82,4.92,18.43,18.43,0,0,1-8.19,1.8A15.83,15.83,0,0,1,126.54,45.06Z"/><path class="cls-1" d="M153.6,43.32Q151.32,41,151.32,36a27.41,27.41,0,0,1,1.77-9.33,21.49,21.49,0,0,1,5.28-8.28A11.63,11.63,0,0,1,166.74,15a6.43,6.43,0,0,1,3.66.84,2.59,2.59,0,0,1,1.2,2.22v.42l.66-3.18h8.64l-4.32,20.4a7.43,7.43,0,0,0-.24,1.92q0,2.58,2.46,2.58a3.62,3.62,0,0,0,2.91-1.56,11.75,11.75,0,0,0,1.95-4.08h2.52Q184,41,180.69,43.35a11.32,11.32,0,0,1-6.57,2.31,5.74,5.74,0,0,1-4.05-1.41,6.31,6.31,0,0,1-1.83-4.11,16.75,16.75,0,0,1-3.87,4,8.46,8.46,0,0,1-5.07,1.53A7.63,7.63,0,0,1,153.6,43.32Zm12.57-4.89a7.4,7.4,0,0,0,2-3.87L171.06,21a2.43,2.43,0,0,0-.6-1.53,2.24,2.24,0,0,0-1.86-.75q-2.4,0-4.32,2.79a22.09,22.09,0,0,0-3,6.72,26.58,26.58,0,0,0-1.08,6.93q0,3,.87,3.84a3,3,0,0,0,2.13.84A4.33,4.33,0,0,0,166.17,38.43Z"/><path class="cls-1" d="M214.17,43.71a7.06,7.06,0,0,1-1.71-4.83,15.54,15.54,0,0,1,.3-2.85q.3-1.59.63-3.09t.45-1.92q.48-2.1.9-4.14a17.16,17.16,0,0,0,.42-3.3q0-3.06-2.16-3.06a3.47,3.47,0,0,0-2.76,1.53,11.78,11.78,0,0,0-1.92,4L204.24,45.3H195.6L200,24.6a6.16,6.16,0,0,0,.18-1.5q0-2.64-1.8-2.64A3.64,3.64,0,0,0,195.45,22,11.41,11.41,0,0,0,193.5,26L189.42,45.3h-8.64l6.36-30h8.64l-.66,3.12A9.5,9.5,0,0,1,202.44,15q5.28,0,6.18,5.16,3.3-5.1,8.34-5.1a6.84,6.84,0,0,1,4.86,1.68,6.65,6.65,0,0,1,1.8,5.1,20.16,20.16,0,0,1-.42,3.87q-.42,2.13-1.2,5.19-.48,1.86-.87,3.63a13.81,13.81,0,0,0-.39,2.79,2.86,2.86,0,0,0,.54,1.86,2.28,2.28,0,0,0,1.86.66A3.57,3.57,0,0,0,226,38.55a15.13,15.13,0,0,0,2.16-4h2.52q-2.22,6.6-5.13,8.85a9.75,9.75,0,0,1-6,2.25Q215.88,45.66,214.17,43.71Z"/><path class="cls-1" d="M232.14,13.08h8.64l-1,4.5a10.43,10.43,0,0,1,7-2.58,6.8,6.8,0,0,1,5.34,2.22q2,2.22,2,7.26a34.71,34.71,0,0,1-1.38,9.57,19.08,19.08,0,0,1-4.68,8.22,11.59,11.59,0,0,1-8.7,3.39q-3.84,0-5.1-2.16l-3.12,14.64-9.06,2.16Zm10.17,24.66a18.36,18.36,0,0,0,2.76-6.45,31,31,0,0,0,.87-7q0-5-3-5a3.81,3.81,0,0,0-2.19.78,7.09,7.09,0,0,0-1.95,2.16l-3.54,16.8a2.13,2.13,0,0,0,2.28,1.38A5.64,5.64,0,0,0,242.31,37.74Z"/><path class="cls-1" d="M256.35,43.86a7.41,7.41,0,0,1-1.77-5.4,20.8,20.8,0,0,1,.48-3.9L261.48,4.5l8.88-1.2-6.9,32.4a7.43,7.43,0,0,0-.24,1.92,2.2,2.2,0,0,0,.57,1.71,2.81,2.81,0,0,0,1.89.51,4.57,4.57,0,0,0,3.24-1.47,8.4,8.4,0,0,0,2.16-3.81h2.52q-2.22,6.48-5.7,8.79a12.43,12.43,0,0,1-6.9,2.31A6.23,6.23,0,0,1,256.35,43.86Z"/><path class="cls-1" d="M272.16,43.35Q269.7,41,269.7,36.12A29.7,29.7,0,0,1,271.32,27a21.17,21.17,0,0,1,5.28-8.61,12.66,12.66,0,0,1,9.3-3.63q6.6,0,6.6,5.76a10.75,10.75,0,0,1-1.92,6.18,14.16,14.16,0,0,1-5.1,4.53,16.47,16.47,0,0,1-6.78,1.95q-.12,1.8-.12,2.4,0,2.94,1,4a4.44,4.44,0,0,0,3.3,1,10,10,0,0,0,5.55-1.5,26.9,26.9,0,0,0,5.07-4.56h2q-6.66,11.1-16.5,11.1A9.69,9.69,0,0,1,272.16,43.35Zm11.25-14.61a11,11,0,0,0,3.24-3.66,9.52,9.52,0,0,0,1.23-4.68q0-2.46-1.5-2.46-2.16,0-4.23,3.78a28.79,28.79,0,0,0-3,8.58A7.91,7.91,0,0,0,283.41,28.74Z"/><path class="cls-1" d="M294.9,44.55A7.29,7.29,0,0,1,292,41.67,7.64,7.64,0,0,1,291,38a6.32,6.32,0,0,1,.93-3.45,5.7,5.7,0,0,1,2.25-2.13,78.41,78.41,0,0,0,4.08-8.49q1.74-4.29,3.3-9.27l8.88-1.2q.3,7.68,1,16.62.3,3.6.3,5.22a9.4,9.4,0,0,1-1.86,6,10.5,10.5,0,0,1-4.59,3.36,15.78,15.78,0,0,1-5.55,1A9.81,9.81,0,0,1,294.9,44.55Zm6.66-4.95a5.44,5.44,0,0,0,1.5-4.26,48.76,48.76,0,0,0-.36-5q-.6-6.84-.78-9.18a69.43,69.43,0,0,1-4.86,11.34,2.27,2.27,0,0,1,1.38,2.1,3.1,3.1,0,0,1-.75,2,2.37,2.37,0,0,1-1.89.9,1.59,1.59,0,0,1-1.62-.78,4.83,4.83,0,0,0,.87,3.18,3.45,3.45,0,0,0,2.79,1A5.45,5.45,0,0,0,301.56,39.6Z"/></g></g></svg>