<svg xmlns="http://www.w3.org/2000/svg" viewBox="0 0 585.15 247.76"><defs><style>.cls-1{fill:#fff;}</style></defs><g id="Layer_2" data-name="Layer 2"><g id="Layer_1-2" data-name="Layer 1"><path class="cls-1" d="M30.76,9.64A28.63,28.63,0,0,0,17.09,20.53q-4.81,7.32-4.81,17.88c0,3.26.3,5.53.92,6.8a11.75,11.75,0,0,1,.92,2.18q-7.12,0-10.62-3T0,34.58q0-8.44,6.93-16.43A51.47,51.47,0,0,1,24.68,5.21,51.71,51.71,0,0,1,46.33.26q1.85,0,5.28.27l-21,98.73h-19Z"/><path class="cls-1" d="M60.06,29.44A35.52,35.52,0,0,0,64.42,24,8.36,8.36,0,0,0,66,19.93a2.81,2.81,0,0,0-.59-1.71,9.61,9.61,0,0,0-1.79-1.72,13.25,13.25,0,0,1-2.9-3,7.43,7.43,0,0,1-1.06-4.22,9.17,9.17,0,0,1,2.51-6.67A8.49,8.49,0,0,1,68.51,0a9,9,0,0,1,6.66,2.57,9,9,0,0,1,2.58,6.67q0,5.15-4.29,11.29A42.45,42.45,0,0,1,62,31.42Z"/><path class="cls-1" d="M145.33,95.83a17.33,17.33,0,0,1-3.17-10.69,34.15,34.15,0,0,1,.66-6.27q.66-3.5,1.39-6.8c.48-2.2.81-3.61,1-4.22q1.05-4.62,2-9.11a38.15,38.15,0,0,0,.92-7.26q0-6.73-4.75-6.73-3.43,0-6.07,3.36a26,26,0,0,0-4.23,8.78l-9,42.37h-19l9.64-45.54a13.68,13.68,0,0,0,.39-3.3q0-5.81-4-5.8a8,8,0,0,0-6.4,3.36,25.35,25.35,0,0,0-4.29,8.91l-9,42.37h-19l14-66h19L104,40.13q6.72-7.53,16.1-7.53,11.61,0,13.59,11.36Q141,32.74,152.06,32.74q6.74,0,10.69,3.69c2.65,2.47,4,6.21,4,11.22a44.06,44.06,0,0,1-.92,8.52q-.93,4.68-2.64,11.41c-.7,2.73-1.34,5.4-1.91,8a29.85,29.85,0,0,0-.86,6.14,6.25,6.25,0,0,0,1.19,4.09c.79,1,2.15,1.45,4.09,1.45a8.47,8.47,0,0,0,4.36-.79q-.79,6.74-4.82,10.16a14.46,14.46,0,0,1-9.7,3.44Q148.5,100.06,145.33,95.83Z"/><path class="cls-1" d="M216.21,113.52a11.7,11.7,0,0,1-6.4-3.83q-2.7-3-2.71-9.37,0-8.83,5.35-23.76a183.78,183.78,0,0,1,14.06-30,33,33,0,0,0-10.43,2,8.36,8.36,0,0,0-5,4.88c.36,0,.73.44,1.13,1.32a6.76,6.76,0,0,1,.59,2.77,4.27,4.27,0,0,1-2.11,3.76,9.39,9.39,0,0,1-5.28,1.39,8.63,8.63,0,0,1-5.94-2A7.15,7.15,0,0,1,197.21,55a11.64,11.64,0,0,1,3.49-8.18A24.06,24.06,0,0,1,210.41,41a41,41,0,0,1,13.72-2.18q2.77,0,6.87.39,10.81-17.15,22.9-28.05t23-10.89a25.47,25.47,0,0,1,10.43,1.85L266.64,99.26h-19l10.16-47.91a53.54,53.54,0,0,0-9-3.3,52,52,0,0,0-8.72-1.45,225.72,225.72,0,0,0-12.34,33.19q-4.81,17-4.81,27.13c0,3.34.61,5.81,1.84,7.39A41.24,41.24,0,0,1,216.21,113.52ZM266.64,9.64q-5.68,3-11.82,11.28a130.52,130.52,0,0,0-11.94,20A82.63,82.63,0,0,1,259,45.54Z"/><path class="cls-1" d="M285.71,96.1q-3.9-4-3.89-11.88a46,46,0,0,1,1.05-8.58l9-42.38h19l-9.51,44.88a19.26,19.26,0,0,0-.39,3.7q0,5.41,4,5.41a8,8,0,0,0,6.33-3.1,23,23,0,0,0,4.23-8.51l9-42.38h19L334,78.14a16,16,0,0,0-.53,4.23,4.86,4.86,0,0,0,1.25,3.76,6.18,6.18,0,0,0,4.16,1.12,8.16,8.16,0,0,0,6.4-3.17,22.83,22.83,0,0,0,4.29-8.44h5.55Q350.19,89.89,343,95t-14.46,5.09a12.68,12.68,0,0,1-9-3.17q-3.36-3.17-4-9.37-4.5,7.26-9.44,9.9a21.24,21.24,0,0,1-10.1,2.64A13.72,13.72,0,0,1,285.71,96.1Z"/><path class="cls-1" d="M352,95.63q-4.76-4.41-4.75-12.47a30.08,30.08,0,0,1,.92-7.52L362.34,9.5l19.53-2.64-6.33,29.7a29.07,29.07,0,0,1,6.07-3,16.3,16.3,0,0,1,4.75-.72q15.57,0,15.58,22.57a61.09,61.09,0,0,1-3.5,19.47,41.69,41.69,0,0,1-11.62,17.75q-8.11,7.4-21.05,7.4Q356.79,100.06,352,95.63Zm28.78-13.46a41.35,41.35,0,0,0,5.67-12.67,54.28,54.28,0,0,0,2.11-14.59,19.9,19.9,0,0,0-1.84-9c-1.24-2.47-2.95-3.7-5.15-3.7a19.11,19.11,0,0,0-4.42.59,5.88,5.88,0,0,0-3.37,1.79l-7.26,33.52a12.77,12.77,0,0,0-.4,3q0,6.07,7,6.07Q377.26,87.25,380.82,82.17Z"/><path class="cls-1" d="M414.47,33.26h19l-1.71,8.19a52.24,52.24,0,0,1,8.11-6.07,15.35,15.35,0,0,1,7.86-2.12,8.24,8.24,0,0,1,6.66,2.91,10.5,10.5,0,0,1,2.45,7,10,10,0,0,1-2.51,6.74,8.79,8.79,0,0,1-7,2.9c-1.94,0-3.23-.46-3.89-1.39a10.46,10.46,0,0,1-1.52-4,12.29,12.29,0,0,0-.79-2.51,1.48,1.48,0,0,0-1.45-.79A9.1,9.1,0,0,0,435,45.21a32.39,32.39,0,0,0-4.95,3.89L419.49,99.26h-19Z"/><path class="cls-1" d="M457.5,95q-5.42-5.07-5.41-15.9A65.32,65.32,0,0,1,455.66,59a46.53,46.53,0,0,1,11.61-18.94q8.06-8,20.46-8,14.52,0,14.52,12.67A23.66,23.66,0,0,1,498,58.34a31.22,31.22,0,0,1-11.22,10,36.21,36.21,0,0,1-14.92,4.29c-.18,2.64-.26,4.4-.26,5.28,0,4.31.74,7.24,2.24,8.78S477.79,89,481.13,89a21.94,21.94,0,0,0,12.21-3.3,59.45,59.45,0,0,0,11.16-10H509q-14.64,24.42-36.3,24.42Q462.92,100.06,457.5,95Zm24.75-32.14a24,24,0,0,0,7.13-8,21,21,0,0,0,2.71-10.3c0-3.6-1.1-5.41-3.3-5.41q-4.76,0-9.31,8.32A63.42,63.42,0,0,0,473,66.26,17.37,17.37,0,0,0,482.25,62.83Z"/><path class="cls-1" d="M512.88,128.24A12.9,12.9,0,0,1,508.19,118a15,15,0,0,1,2.9-9.51,19.89,19.89,0,0,1,7.53-5.8A102.11,102.11,0,0,1,531,98.21l1.32-5.81q-6.74,7.65-16.11,7.66a13.72,13.72,0,0,1-10.23-4q-3.88-4-3.89-11.88a46,46,0,0,1,1.05-8.58l9-42.38h19l-9.51,44.88a13.8,13.8,0,0,0-.39,3.3c0,3.88,1.32,5.81,4,5.81a8,8,0,0,0,6.33-3.1,23,23,0,0,0,4.23-8.51l9-42.38H563.9l-16.11,76.56q-2.64,12.68-9.31,17.56a24.36,24.36,0,0,1-14.71,4.88A16.2,16.2,0,0,1,512.88,128.24Zm12.34-10.17c1.41-1.63,2.51-4.24,3.3-7.85l1.58-7.79A34.28,34.28,0,0,0,519.28,108a10.12,10.12,0,0,0-3.83,8.18,4,4,0,0,0,1.58,3,5.47,5.47,0,0,0,3.7,1.39A6,6,0,0,0,525.22,118.07Z"/><path class="cls-1" d="M566.8,113.65a4.87,4.87,0,0,1,.79-2.77,27.9,27.9,0,0,1,2.64-3.17,27,27,0,0,0,2.64-3.17,5.09,5.09,0,0,0,.79-2.9A3.29,3.29,0,0,0,572,99q-6.21-4-6.21-9.64a10.24,10.24,0,0,1,3-7.45,10,10,0,0,1,7.39-3.11,8.23,8.23,0,0,1,6.6,2.78,10.78,10.78,0,0,1,2.38,7.26q0,6.19-4.69,14A41.64,41.64,0,0,1,568,115.9,2.54,2.54,0,0,1,566.8,113.65Z"/><path class="cls-1" d="M165,163.57a16.79,16.79,0,0,1-.67-4.42,12.26,12.26,0,0,1-4.7,3.7,14.41,14.41,0,0,1-6,1.31,10.63,10.63,0,0,1-7.4-2.55,8.33,8.33,0,0,1-2.83-6.45,8.49,8.49,0,0,1,3.86-7.32q3.84-2.7,10.73-2.7h6.36v-3.6a7,7,0,0,0-2.09-5.35,8.67,8.67,0,0,0-6.11-1.95,9.58,9.58,0,0,0-6.07,1.88,5.57,5.57,0,0,0-2.4,4.51l-3.51,0a8.17,8.17,0,0,1,3.51-6.55,13.57,13.57,0,0,1,8.64-2.76q5.31,0,8.37,2.65a9.52,9.52,0,0,1,3.15,7.39v15a18.73,18.73,0,0,0,1,6.89v.35Zm-11-2.52a11.78,11.78,0,0,0,6.28-1.7,9.94,9.94,0,0,0,4-4.54v-7H158q-5.25.06-8.2,1.92a5.76,5.76,0,0,0-3,5.11,5.65,5.65,0,0,0,2,4.42A7.41,7.41,0,0,0,154,161.05Z"/><path class="cls-1" d="M209.48,155.51a5,5,0,0,0-2.1-4.19,16.25,16.25,0,0,0-6.31-2.47,28.8,28.8,0,0,1-6.55-2,8.83,8.83,0,0,1-3.46-2.83,7.05,7.05,0,0,1-1.12-4,7.54,7.54,0,0,1,3.13-6.2,12.68,12.68,0,0,1,8-2.44,13,13,0,0,1,8.51,2.62,8.42,8.42,0,0,1,3.21,6.84H209.3a5.68,5.68,0,0,0-2.33-4.63,10.49,10.49,0,0,0-11.42-.31,4.75,4.75,0,0,0-2.1,4,4.34,4.34,0,0,0,1.74,3.68,18.71,18.71,0,0,0,6.36,2.39,29.91,29.91,0,0,1,6.92,2.31,9,9,0,0,1,3.41,3,8.14,8.14,0,0,1-2.12,10.6,13.8,13.8,0,0,1-8.46,2.41,14.26,14.26,0,0,1-9-2.68,8.27,8.27,0,0,1-3.44-6.79h3.52a6.08,6.08,0,0,0,2.59,4.79,10.55,10.55,0,0,0,6.31,1.72,10,10,0,0,0,5.92-1.61A4.85,4.85,0,0,0,209.48,155.51Z"/><path class="cls-1" d="M218.34,147.25a18.68,18.68,0,0,1,1.77-8.23,13.29,13.29,0,0,1,12.35-7.73,13.08,13.08,0,0,1,10.26,4.43q3.92,4.44,3.92,11.77v.73a18.87,18.87,0,0,1-1.77,8.28,13.16,13.16,0,0,1-5,5.66,13.69,13.69,0,0,1-7.35,2,13.05,13.05,0,0,1-10.24-4.44q-3.94-4.44-3.94-11.76Zm3.52,1a14.39,14.39,0,0,0,2.94,9.33,10,10,0,0,0,15.41,0q2.94-3.65,2.94-9.62v-.68a16.1,16.1,0,0,0-1.34-6.65,10.83,10.83,0,0,0-3.78-4.67,9.69,9.69,0,0,0-5.57-1.66,9.4,9.4,0,0,0-7.65,3.68,14.89,14.89,0,0,0-2.95,9.62Z"/><path class="cls-1" d="M255.8,163.57V134.74h-5.25v-2.87h5.25V128q0-4.86,2.47-7.47a9,9,0,0,1,6.9-2.6,13.44,13.44,0,0,1,3.72.49l-.26,2.9a13.92,13.92,0,0,0-3.19-.35,5.73,5.73,0,0,0-4.52,1.81,7.46,7.46,0,0,0-1.61,5.13v3.93h7.56v2.87h-7.56v28.83Z"/><path class="cls-1" d="M278,123.76v8.11h6.56v2.87H278v21.15a6.65,6.65,0,0,0,.95,3.93,3.71,3.71,0,0,0,3.18,1.29,22.59,22.59,0,0,0,2.84-.29l.15,2.84a11.43,11.43,0,0,1-3.75.5q-3.6,0-5.25-2.1c-1.09-1.39-1.64-3.45-1.64-6.16V134.74h-5.83v-2.87h5.83v-8.11Z"/><path class="cls-1" d="M298.81,156.28l.52,2.72.71-2.87,7.61-24.26h3l7.53,24,.82,3.34.68-3.07,6.5-24.32h3.63l-9.23,31.7h-3l-8.14-25.14-.38-1.72-.38,1.75-8,25.11h-3l-9.2-31.7h3.61Z"/><path class="cls-1" d="M355.86,163.57a16.79,16.79,0,0,1-.67-4.42,12.26,12.26,0,0,1-4.7,3.7,14.44,14.44,0,0,1-6.05,1.31,10.62,10.62,0,0,1-7.4-2.55,8.3,8.3,0,0,1-2.83-6.45,8.5,8.5,0,0,1,3.85-7.32q3.85-2.7,10.74-2.7h6.36v-3.6a6.94,6.94,0,0,0-2.1-5.35c-1.39-1.3-3.43-1.95-6.1-1.95a9.56,9.56,0,0,0-6.07,1.88,5.57,5.57,0,0,0-2.4,4.51l-3.52,0a8.18,8.18,0,0,1,3.52-6.55,13.55,13.55,0,0,1,8.64-2.76c3.54,0,6.32.88,8.37,2.65a9.52,9.52,0,0,1,3.15,7.39v15a18.73,18.73,0,0,0,1,6.89v.35Zm-11-2.52a11.8,11.8,0,0,0,6.28-1.7,9.94,9.94,0,0,0,4-4.54v-7h-6.27q-5.25.06-8.2,1.92a5.74,5.74,0,0,0-3,5.11,5.67,5.67,0,0,0,2,4.42A7.44,7.44,0,0,0,344.85,161.05Z"/><path class="cls-1" d="M382,134.86a12.74,12.74,0,0,0-2.37-.21,8.6,8.6,0,0,0-5.56,1.84,10,10,0,0,0-3.23,5.31v21.77h-3.49v-31.7h3.43l.06,5a9.31,9.31,0,0,1,8.93-5.62,5.69,5.69,0,0,1,2.32.38Z"/><path class="cls-1" d="M398.7,164.16a13.72,13.72,0,0,1-7.31-2,13.47,13.47,0,0,1-5.09-5.55,17.29,17.29,0,0,1-1.81-8v-1.26a18.65,18.65,0,0,1,1.77-8.23,14.13,14.13,0,0,1,4.94-5.76,12.11,12.11,0,0,1,6.85-2.09,11.45,11.45,0,0,1,9.16,3.94q3.38,3.93,3.38,10.76v2H388v.67a13.28,13.28,0,0,0,3.09,9,9.85,9.85,0,0,0,7.78,3.59,11.35,11.35,0,0,0,5-1,10.94,10.94,0,0,0,3.91-3.28l2.2,1.67Q406,164.15,398.7,164.16Zm-.65-29.89a8.75,8.75,0,0,0-6.66,2.9,13.42,13.42,0,0,0-3.3,7.8h19v-.38a11.57,11.57,0,0,0-2.6-7.44A8.07,8.07,0,0,0,398.05,134.27Z"/><path class="cls-1" d="M154.73,219.43q0-7.38,3.29-11.76a10.61,10.61,0,0,1,8.95-4.38,11,11,0,0,1,9.79,5.06V190.57h3.49v45H177l-.14-4.22q-3.37,4.82-9.9,4.81a10.58,10.58,0,0,1-8.84-4.41q-3.35-4.41-3.35-11.91Zm3.54.61q0,6.08,2.43,9.57a7.89,7.89,0,0,0,6.86,3.5,9.43,9.43,0,0,0,9.2-5.71V212.51q-2.73-6.18-9.14-6.18a8,8,0,0,0-6.89,3.47Q158.27,213.28,158.27,220Z"/><path class="cls-1" d="M201.15,236.16a13.75,13.75,0,0,1-7.31-2,13.45,13.45,0,0,1-5.08-5.55,17.17,17.17,0,0,1-1.82-8v-1.26a18.65,18.65,0,0,1,1.77-8.23,14.13,14.13,0,0,1,4.94-5.76,12.13,12.13,0,0,1,6.85-2.09,11.45,11.45,0,0,1,9.16,3.94q3.39,3.93,3.38,10.76v2H190.43v.67a13.28,13.28,0,0,0,3.09,9,9.84,9.84,0,0,0,7.78,3.59,11.3,11.3,0,0,0,5-1,10.85,10.85,0,0,0,3.91-3.28l2.2,1.67Q208.5,236.15,201.15,236.16Zm-.65-29.89a8.78,8.78,0,0,0-6.66,2.9,13.42,13.42,0,0,0-3.3,7.8h19v-.38a11.63,11.63,0,0,0-2.61-7.44A8.07,8.07,0,0,0,200.5,206.27Z"/><path class="cls-1" d="M228.76,230.74l9.64-26.87H242l-11.83,31.7h-2.84l-11.9-31.7H219Z"/><path class="cls-1" d="M259,236.16a13.77,13.77,0,0,1-7.31-2,13.45,13.45,0,0,1-5.08-5.55,17.3,17.3,0,0,1-1.82-8v-1.26a18.65,18.65,0,0,1,1.77-8.23,14.21,14.21,0,0,1,4.94-5.76,12.16,12.16,0,0,1,6.86-2.09,11.43,11.43,0,0,1,9.15,3.94q3.39,3.93,3.39,10.76v2H248.32v.67a13.28,13.28,0,0,0,3.09,9,9.84,9.84,0,0,0,7.78,3.59,11.3,11.3,0,0,0,5-1,10.85,10.85,0,0,0,3.91-3.28l2.2,1.67Q266.39,236.15,259,236.16Zm-.64-29.89a8.79,8.79,0,0,0-6.67,2.9,13.41,13.41,0,0,0-3.29,7.8h19v-.38a11.63,11.63,0,0,0-2.61-7.44A8.07,8.07,0,0,0,258.4,206.27Z"/><path class="cls-1" d="M281.09,235.57h-3.52v-45h3.52Z"/><path class="cls-1" d="M288.08,219.25a18.68,18.68,0,0,1,1.77-8.23,13.29,13.29,0,0,1,12.35-7.73,13.06,13.06,0,0,1,10.25,4.43q3.93,4.44,3.93,11.77v.73a18.74,18.74,0,0,1-1.78,8.28,13.14,13.14,0,0,1-5,5.66,13.7,13.7,0,0,1-7.36,2A13,13,0,0,1,292,231.72q-3.94-4.44-3.94-11.76Zm3.51,1a14.34,14.34,0,0,0,3,9.33,10,10,0,0,0,15.41,0q2.94-3.65,2.94-9.62v-.68a16.1,16.1,0,0,0-1.35-6.65,10.83,10.83,0,0,0-3.78-4.67,9.66,9.66,0,0,0-5.56-1.66,9.37,9.37,0,0,0-7.65,3.68,14.89,14.89,0,0,0-3,9.62Z"/><path class="cls-1" d="M348.5,220q0,7.41-3.28,11.77a10.46,10.46,0,0,1-8.79,4.35q-6.51,0-10-4.57v16.17H323V203.87h3.25l.18,4.48a11.27,11.27,0,0,1,9.93-5.06,10.54,10.54,0,0,1,8.92,4.3q3.24,4.31,3.24,12Zm-3.52-.61q0-6.06-2.49-9.58a8,8,0,0,0-6.94-3.52,9.26,9.26,0,0,0-9.08,6.07v15.2a9.26,9.26,0,0,0,3.6,4.16,10.39,10.39,0,0,0,5.54,1.44,8,8,0,0,0,6.9-3.53Q345,226.13,345,219.43Z"/><path class="cls-1" d="M367.94,236.16a13.75,13.75,0,0,1-7.31-2,13.45,13.45,0,0,1-5.08-5.55,17.3,17.3,0,0,1-1.82-8v-1.26a18.65,18.65,0,0,1,1.77-8.23,14.13,14.13,0,0,1,4.94-5.76,12.13,12.13,0,0,1,6.85-2.09,11.45,11.45,0,0,1,9.16,3.94q3.39,3.93,3.38,10.76v2H357.22v.67a13.28,13.28,0,0,0,3.09,9,9.84,9.84,0,0,0,7.78,3.59,11.3,11.3,0,0,0,5-1,10.85,10.85,0,0,0,3.91-3.28l2.2,1.67Q375.29,236.15,367.94,236.16Zm-.65-29.89a8.78,8.78,0,0,0-6.66,2.9,13.42,13.42,0,0,0-3.3,7.8h19v-.38a11.63,11.63,0,0,0-2.61-7.44A8.07,8.07,0,0,0,367.29,206.27Z"/><path class="cls-1" d="M400.71,206.86a12.74,12.74,0,0,0-2.37-.21,8.6,8.6,0,0,0-5.56,1.84,10,10,0,0,0-3.23,5.31v21.77h-3.49v-31.7h3.43l.06,5a9.31,9.31,0,0,1,8.93-5.62,5.69,5.69,0,0,1,2.32.38Z"/></g></g></svg>